<?xml version="1.0" encoding="UTF-8" standalone="no"?>
<!-- Created with Inkscape (http://www.inkscape.org/) -->

<svg
   width="62.717857mm"
   height="88.090981mm"
   viewBox="0 0 62.717857 88.090981"
   version="1.1"
   id="svg5"
   inkscape:version="1.1 (c4e8f9ed74, 2021-05-24)"
   sodipodi:docname="ghost.svg"
   xmlns:inkscape="http://www.inkscape.org/namespaces/inkscape"
   xmlns:sodipodi="http://sodipodi.sourceforge.net/DTD/sodipodi-0.dtd"
   xmlns="http://www.w3.org/2000/svg"
   xmlns:svg="http://www.w3.org/2000/svg">
  <sodipodi:namedview
     id="namedview7"
     pagecolor="#282a36"
     bordercolor="#111111"
     borderopacity="1"
     inkscape:pageshadow="0"
     inkscape:pageopacity="0"
     inkscape:pagecheckerboard="false"
     inkscape:document-units="mm"
     showgrid="false"
     fit-margin-top="0"
     fit-margin-left="0"
     fit-margin-right="0"
     fit-margin-bottom="0"
     inkscape:zoom="0.38885732"
     inkscape:cx="572.1893"
     inkscape:cy="-145.29751"
     inkscape:window-width="1900"
     inkscape:window-height="1028"
     inkscape:window-x="2570"
     inkscape:window-y="222"
     inkscape:window-maximized="1"
     inkscape:current-layer="layer1" />
  <defs
     id="defs2">
    <inkscape:path-effect
       effect="simplify"
       id="path-effect6090"
       is_visible="true"
       lpeversion="1"
       steps="1"
       threshold="0.00108696"
       smooth_angles="360"
       helper_size="0"
       simplify_individual_paths="false"
       simplify_just_coalesce="false" />
    <inkscape:path-effect
       effect="simplify"
       id="path-effect6086"
       is_visible="true"
       lpeversion="1"
       steps="1"
       threshold="0.00108696"
       smooth_angles="360"
       helper_size="0"
       simplify_individual_paths="false"
       simplify_just_coalesce="false" />
    <inkscape:path-effect
       effect="spiro"
       id="path-effect44"
       is_visible="true"
       lpeversion="1" />
  </defs>
  <g
     inkscape:label="Layer 1"
     inkscape:groupmode="layer"
     id="layer1"
     transform="translate(-87.236842,-194.24287)">
    <g
       id="g16054"
       transform="translate(125.07407,-35.699468)">
      <path
         style="fill:none;stroke:#f8f8f2;stroke-width:0.264583px;stroke-linecap:butt;stroke-linejoin:miter;stroke-opacity:1"
         d="m 52.612022,133.35185 c 5.885769,-2.19291 9.951942,-6.31114 10.951424,-13.30752 0.901504,-6.31052 1.808938,-11.39203 3.550529,-17.4876 1.032739,-6.72766 6.03323,-20.937969 18.958895,-17.166551 20.08204,11.343031 6.336344,30.383151 15.58488,43.037701 2.24009,2.85141 9.78983,4.09916 10.81735,6.98732 0.0251,0.18403 -4.90371,-0.3402 -5.00749,-0.3402 -2.29968,0 -4.83908,1.04644 -6.90292,2.3414 2.72488,6.51634 6.39779,14.83075 7.79945,21.30916 0.84034,4.62627 2.09916,7.50225 2.70977,9.18309 0.39787,1.10064 3.41667,6.06655 0,4.42268 -5.67412,-2.73001 -10.71257,-7.58502 -14.022123,-5.70707 -4.580194,2.59896 -4.534172,5.49502 -8.147923,6.05301 -6.545705,1.01071 -7.769285,-4.5327 -12.339698,-6.81791 -2.18104,-1.09052 -6.660639,7.64907 -10.20029,7.64907 -5.070272,0 -5.526894,-5.28964 -8.937223,-7.56319 -1.340588,-0.89373 -6.476779,7.25632 -7.748326,6.12791 -0.453779,-0.4027 -0.748838,-7.2368 1.321621,-13.54876 2.665139,-8.12489 5.54396,-11.47147 8.132222,-16.6457 0.573905,-1.1473 1.768021,-5.47694 -0.91447,-6.80525 -2.963164,-1.46729 -11.651366,2.24455 -5.605678,-1.72159 z"
         id="path114"
         sodipodi:nodetypes="csccccscccssssssssssc" />
      <path
         style="fill:none;stroke:#f8f8f2;stroke-width:0.264583px;stroke-linecap:butt;stroke-linejoin:miter;stroke-opacity:1"
         d="m 76.957819,100.43114 c -0.351252,0.10619 -0.715119,0.1605 -1.074376,0.23171 -0.437486,0.0867 -0.880386,0.17943 -1.284858,0.37341 -0.252461,0.12108 -0.486018,0.2949 -0.641911,0.53205 -0.347733,0.52899 -0.632778,1.11379 -0.735703,1.74351 -0.07832,0.47916 -0.02468,0.98158 0.172953,1.42721 0.228685,0.51564 0.632958,0.93378 1.08697,1.25938 0.388422,0.27856 0.826773,0.47434 1.259133,0.67569 0.345841,0.16106 0.684539,0.3465 1.055303,0.44412 0.17854,0.047 0.369137,0.0789 0.552178,0.0343 0.08089,-0.0197 0.148055,-0.0704 0.212934,-0.12027 0.346875,-0.26685 0.682059,-0.5617 0.925275,-0.9287 0.121839,-0.18385 0.231528,-0.38378 0.269761,-0.6022 0.04796,-0.27396 0.04548,-0.55406 0.03324,-0.83082 -0.03134,-0.70851 -0.12538,-1.41514 -0.289705,-2.10488 -0.11839,-0.49693 -0.257437,-0.99627 -0.501938,-1.44698 -0.127026,-0.23416 -0.281615,-0.46638 -0.508511,-0.61499 -0.155487,-0.10184 -0.35367,-0.13206 -0.530743,-0.0725 z"
         id="path6084"
         inkscape:path-effect="#path-effect6086"
         inkscape:original-d="m 76.957819,100.43114 c -0.839608,0.26237 -2.436718,0.29006 -2.983228,1.11015 -1.537986,2.3079 -0.752173,4.09075 1.710381,5.10891 0.361733,0.14957 1.377809,0.75572 1.811366,0.43059 0.494559,-0.37088 1.059212,-0.87945 1.240031,-1.49905 0.256058,-0.87743 -0.332738,-5.60333 -1.77855,-5.1506 z" />
      <path
         style="fill:none;stroke:#f8f8f2;stroke-width:0.264583px;stroke-linecap:butt;stroke-linejoin:miter;stroke-opacity:1"
         d="m 87.346923,100.16216 c -0.488709,0.16728 -0.942599,0.45737 -1.264643,0.86619 -0.308451,0.39156 -0.474461,0.88279 -0.508134,1.37747 -0.03535,0.51929 0.05233,1.04325 0.226534,1.53204 0.2877,0.80722 0.802052,1.53271 1.464605,2.07169 0.182829,0.14873 0.362417,0.30227 0.556548,0.43632 0.273283,0.1887 0.588739,0.302 0.901546,0.40519 0.283658,0.0936 0.583505,0.17197 0.88481,0.13498 0.282962,-0.0347 0.538331,-0.1818 0.755787,-0.35955 0.262065,-0.21421 0.492601,-0.46512 0.699282,-0.73222 0.18721,-0.24194 0.367196,-0.49639 0.475498,-0.78422 0.05571,-0.14807 0.09277,-0.31073 0.05494,-0.46857 -0.06597,-0.27527 -0.186581,-0.53399 -0.313878,-0.78529 -0.342319,-0.67579 -0.74682,-1.31992 -1.199309,-1.92691 -0.382883,-0.51362 -0.787726,-1.0195 -1.279828,-1.43243 -0.236323,-0.1983 -0.492525,-0.3875 -0.790753,-0.47982 -0.179819,-0.05566 -0.386646,-0.05243 -0.549727,0.0519 -0.04131,0.0264 -0.07915,0.0581 -0.113276,0.0933 z"
         id="path6088"
         inkscape:path-effect="#path-effect6090"
         inkscape:original-d="m 87.346923,100.16216 c -1.46885,0.50869 -2.050648,1.80668 -1.664554,3.38101 0.24681,1.00641 0.881653,1.90019 1.664971,2.53421 0.41297,0.33426 0.572743,0.4782 1.06823,0.66378 0.893526,0.33467 1.378603,0.42527 2.117185,-0.26169 0.354958,-0.33016 1.077807,-1.16755 1.077793,-1.70564 -2.1e-5,-0.85769 -3.115154,-5.794475 -4.263625,-4.61167 z" />
    </g>
    <path
       style="fill:#000000;fill-opacity:0;stroke:#f8f8f2;stroke-width:1.6;stroke-linejoin:round;stroke-miterlimit:1;stroke-opacity:1;-inkscape-stroke:none;paint-order:markers stroke fill;stop-color:#000000"
       d="m 21.432307,135.9402 c -1.648907,-0.50035 -2.359128,-1.06435 -3.783576,-3.00461 -1.959822,-2.6695 -3.719163,-4.49754 -4.328528,-4.49754 -0.280143,0 -1.965383,1.49265 -3.7449782,3.31701 l -3.2356292,3.31701 -0.2317486,-1.36083 c -0.2819453,-1.65556 0.1728708,-6.84604 0.8592026,-9.80545 0.6925919,-2.9864 2.2762104,-6.88033 4.5212554,-11.11722 5.139251,-9.69891 4.860777,-9.04784 4.860777,-11.36443 0,-1.892035 -0.112649,-2.264161 -0.935567,-3.090508 -0.928423,-0.932294 -0.962387,-0.938115 -4.447894,-0.762164 -3.9949598,0.201668 -3.9865408,0.124931 0.217032,-1.97803 2.874926,-1.438265 4.771565,-3.054699 6.264913,-5.339353 1.762749,-2.696802 2.175999,-4.051027 3.312464,-10.855004 1.529596,-9.157645 4.085093,-19.122218 5.78313,-22.54999 1.692722,-3.417049 4.093575,-6.179103 6.520333,-7.501314 1.523942,-0.830312 2.319854,-1.019045 4.800484,-1.138324 2.724677,-0.131017 3.13722,-0.06296 4.927203,0.812792 2.966029,1.451144 7.163782,5.786956 8.706771,8.993124 1.802918,3.746285 2.284214,6.771499 2.488689,15.642783 0.208825,9.060187 0.681035,12.184797 2.354876,15.582235 1.402406,2.846496 1.938301,3.27451 7.726413,6.170949 2.085914,1.043818 3.837554,2.050941 3.892531,2.238054 0.06225,0.211852 -1.279842,0.340675 -3.557254,0.341451 -3.110526,0.0011 -3.922604,0.121054 -5.432586,0.802751 -0.976455,0.440827 -1.918801,0.976093 -2.094103,1.189476 -0.209817,0.255402 0.490172,2.364232 2.048513,6.171472 3.25746,7.95843 4.224996,10.79428 5.601864,16.41907 0.653243,2.66863 1.868617,6.53558 2.700829,8.59322 0.832213,2.05764 1.513113,3.81635 1.513113,3.90825 0,0.51845 -1.371883,-0.12567 -5.706457,-2.67927 -7.761703,-4.5726 -8.787574,-4.60593 -13.239919,-0.43026 -3.247938,3.04612 -3.755565,3.32522 -6.04774,3.32522 -2.254845,0 -3.917122,-0.81866 -5.964647,-2.93757 -2.109333,-2.18287 -4.529537,-3.91515 -5.469933,-3.91515 -0.545002,0 -1.834893,1.05928 -4.206999,3.45484 -2.778442,2.80593 -5.056449,4.5387 -5.706472,4.34066 -0.05279,-0.0161 -0.487651,-0.14809 -0.966362,-0.29335 z M 34.928145,69.402297 c 0.440819,-0.67278 0.514093,-1.283589 0.335875,-2.799945 -0.382103,-3.251086 -1.32157,-4.007541 -3.872651,-3.118229 -1.285409,0.448096 -2.114452,1.642695 -2.114452,3.046797 0,1.482508 0.50536,2.262041 1.96669,3.033686 1.786147,0.94316 2.995099,0.889904 3.684538,-0.162309 z m 12.40587,-0.133953 c 0.546949,-0.546947 0.99445,-1.212131 0.99445,-1.478185 0,-0.730853 -2.556841,-4.535657 -3.218635,-4.789609 -1.086673,-0.416997 -1.914676,-0.223004 -2.791765,0.654084 -0.7353,0.735301 -0.847275,1.093359 -0.695581,2.224302 0.22566,1.682424 0.983178,2.862548 2.386835,3.718414 1.482365,0.903857 2.158767,0.83692 3.324696,-0.329006 z"
       id="path14734" />
    <path
       style="fill:none;fill-opacity:0;stroke:none;stroke-width:2.64567;stroke-linejoin:round;stroke-miterlimit:1;stroke-dasharray:none;stroke-opacity:1;paint-order:markers stroke fill;stop-color:#000000"
       d="m 246.15918,653.90535 c -6.23209,-1.89106 -8.91639,-4.02272 -14.30013,-11.35599 -7.4072,-10.08947 -14.05668,-16.99858 -16.35979,-16.99858 -1.05881,0 -7.42822,5.64152 -14.15425,12.53673 l -12.22915,12.53673 -0.8759,-5.14328 c -1.06562,-6.25725 0.65337,-25.87483 3.24738,-37.05999 2.61767,-11.28719 8.603,-26.0044 17.08821,-42.01785 19.42394,-36.65727 18.37144,-34.19656 18.37144,-42.95216 0,-7.151 -0.42576,-8.55746 -3.536,-11.68066 -3.509,-3.52363 -3.63737,-3.54563 -16.81094,-2.88062 -15.09906,0.76221 -15.06724,0.47218 0.82028,-7.47602 10.86586,-5.43596 18.03426,-11.54532 23.67841,-20.18023 6.66236,-10.19264 8.22425,-15.31097 12.51955,-41.02679 5.78115,-34.61157 15.43972,-72.27295 21.8575,-85.22831 6.39769,-12.91483 15.47178,-23.35409 24.64378,-28.35142 5.75978,-3.13819 8.76795,-3.85151 18.14356,-4.30233 10.29799,-0.49518 11.85721,-0.23797 18.6225,3.07197 11.21019,5.48464 27.07571,21.87196 32.90748,33.98976 6.81418,14.15919 8.63325,25.59307 9.40607,59.12233 0.78926,34.24323 2.57399,46.05278 8.90032,58.89349 5.30043,10.75841 7.32586,12.3761 29.20219,23.32327 7.88377,3.94514 14.50414,7.75159 14.71193,8.45879 0.23526,0.8007 -4.8372,1.28759 -13.44474,1.29052 -11.75632,0.004 -14.82559,0.45753 -20.53261,3.03402 -3.69054,1.66612 -7.25216,3.68917 -7.91472,4.49566 -0.79301,0.96529 1.85262,8.93568 7.74241,23.32526 12.31166,30.07908 15.96849,40.79725 21.1724,62.05632 2.46895,10.08616 7.06249,24.7014 10.20786,32.47831 3.14537,7.77691 5.71885,14.42401 5.71885,14.77135 0,1.95947 -5.18507,-0.47499 -21.56771,-10.12639 -29.33557,-17.28225 -33.21288,-17.40825 -50.04064,-1.62616 -12.27567,11.51287 -14.19426,12.56776 -22.8576,12.56776 -8.52225,0 -14.80487,-3.09417 -22.54355,-11.10266 -7.97228,-8.2502 -17.11951,-14.7974 -20.67376,-14.7974 -2.05985,0 -6.93503,4.00356 -15.90047,13.05766 -10.5012,10.60508 -19.11099,17.15415 -21.56777,16.40565 -0.19951,-0.0608 -1.84309,-0.55972 -3.65239,-1.10874 z m 51.00789,-251.48183 c 1.66609,-2.54279 1.94303,-4.85136 1.26945,-10.58247 -1.44417,-12.28757 -4.99491,-15.14661 -14.63679,-11.78543 -4.85824,1.69359 -7.99163,6.20861 -7.99163,11.51545 0,5.60318 1.91002,8.54945 7.43316,11.4659 6.75079,3.5647 11.32006,3.36342 13.92581,-0.61345 z m 46.88833,-0.50628 c 2.06721,-2.0672 3.75855,-4.58128 3.75855,-5.58684 0,-2.76228 -9.66365,-17.14264 -12.16492,-18.10246 -4.10711,-1.57605 -7.23657,-0.84285 -10.55155,2.47213 -2.77909,2.77909 -3.2023,4.13238 -2.62897,8.40681 0.85289,6.35877 3.71595,10.81908 9.02111,14.05385 5.60264,3.41615 8.15912,3.16316 12.56578,-1.24349 z"
       id="path14773"
       transform="scale(0.26458333)" />
    <path
       style="fill:#bd93f9;fill-opacity:1;stroke:none;stroke-width:1.6;stroke-linejoin:round;stroke-miterlimit:1;-inkscape-stroke:none;paint-order:markers stroke fill;stop-color:#000000"
       d="m 102.6462,282.02515 c -1.64891,-0.50035 -2.35913,-1.06435 -3.78359,-3.00462 -1.959824,-2.66951 -3.719168,-4.49753 -4.328539,-4.49753 -0.280141,0 -1.965385,1.49265 -3.744989,3.31701 l -3.235626,3.31701 -0.231751,-1.36083 c -0.281951,-1.65556 0.172869,-6.84605 0.859201,-9.80545 0.692592,-2.98641 2.276215,-6.88033 4.521261,-11.11723 5.139271,-9.6989 4.86079,-9.04784 4.86079,-11.36442 0,-1.89204 -0.112649,-2.26416 -0.935561,-3.09051 -0.928433,-0.93229 -0.962392,-0.93812 -4.44791,-0.76217 -3.994969,0.20167 -3.98655,0.12494 0.21703,-1.97803 2.874936,-1.43826 4.77158,-3.05469 6.264934,-5.33935 1.76275,-2.6968 2.176,-4.05103 3.31247,-10.855 1.52961,-9.15765 4.0851,-19.12222 5.78314,-22.55 1.69273,-3.41704 4.09359,-6.1791 6.52034,-7.50131 1.52397,-0.83032 2.31988,-1.01905 4.80051,-1.13833 2.72468,-0.13101 3.13722,-0.063 4.92721,0.81279 2.96603,1.45115 7.1638,5.78696 8.70679,8.99313 1.80292,3.74629 2.28422,6.7715 2.48869,15.64279 0.20883,9.06019 0.68103,12.1848 2.35489,15.58223 1.4024,2.8465 1.9383,3.27451 7.72643,6.17095 2.08592,1.04382 3.83756,2.05094 3.89253,2.23806 0.0623,0.21185 -1.27984,0.34067 -3.55725,0.34145 -3.11054,10e-4 -3.92262,0.12105 -5.4326,0.80275 -0.97646,0.44083 -1.91881,0.97609 -2.09411,1.18948 -0.20982,0.25539 0.49018,2.36423 2.04852,6.17147 3.25746,7.95842 4.22501,10.79427 5.60187,16.41907 0.65325,2.66863 1.86862,6.53558 2.70084,8.59322 0.83221,2.05764 1.51312,3.81635 1.51312,3.90825 0,0.51844 -1.37189,-0.12567 -5.70647,-2.67927 -7.76172,-4.5726 -8.78761,-4.60593 -13.23996,-0.43026 -3.24794,3.04612 -3.75556,3.32522 -6.04775,3.32522 -2.25485,0 -3.91713,-0.81866 -5.96466,-2.93758 -2.10933,-2.18286 -4.52954,-3.91514 -5.46995,-3.91514 -0.54499,0 -1.83489,1.05927 -4.20701,3.45484 -2.77844,2.80593 -5.05646,4.5387 -5.70648,4.34066 -0.0528,-0.0161 -0.48764,-0.14809 -0.96636,-0.29335 z m 13.49587,-66.53791 c 0.44081,-0.67278 0.51409,-1.28359 0.33587,-2.79994 -0.3821,-3.25109 -1.32157,-4.00755 -3.87265,-3.11823 -1.28542,0.44809 -2.11446,1.64269 -2.11446,3.04679 0,1.48251 0.50536,2.26205 1.9667,3.03369 1.78613,0.94316 2.99511,0.88991 3.68454,-0.16231 z m 12.40589,-0.13395 c 0.54695,-0.54695 0.99445,-1.21213 0.99445,-1.47818 0,-0.73086 -2.55685,-4.53566 -3.21864,-4.78962 -1.08667,-0.41699 -1.91468,-0.223 -2.79176,0.65409 -0.73531,0.7353 -0.84728,1.09336 -0.6956,2.2243 0.22566,1.68243 0.98319,2.86255 2.38685,3.71842 1.48237,0.90385 2.15878,0.83692 3.3247,-0.32901 z"
       id="path14886" />
  </g>
</svg>
