<?xml version="1.0" standalone="no"?>
<!DOCTYPE svg PUBLIC "-//W3C//DTD SVG 20010904//EN"
 "http://www.w3.org/TR/2001/REC-SVG-20010904/DTD/svg10.dtd">
<svg version="1.0" xmlns="http://www.w3.org/2000/svg"
 width="1000.000000pt" height="1000.000000pt" viewBox="0 0 1000.000000 1000.000000"
 preserveAspectRatio="xMidYMid meet">
<metadata>
Created by potrace 1.14, written by Peter Selinger 2001-2017
</metadata>
<g transform="translate(0.000000,1000.000000) scale(0.100000,-0.100000)"
fill="#000000" stroke="none">
<path d="M5057 9244 c-1 -1 -46 -5 -100 -8 -53 -4 -103 -9 -110 -11 -6 -2 -28
-6 -47 -9 -122 -18 -312 -127 -448 -258 -269 -259 -426 -542 -573 -1036 -39
-130 -171 -632 -189 -717 -4 -22 -24 -113 -44 -202 -19 -89 -38 -177 -41 -195
-3 -18 -10 -49 -15 -68 -5 -19 -11 -51 -14 -70 -2 -19 -7 -46 -10 -60 -5 -21
-41 -214 -61 -330 -42 -236 -66 -370 -70 -395 -12 -65 -37 -182 -45 -210 -5
-16 -11 -41 -14 -55 -9 -52 -69 -208 -107 -279 -164 -306 -351 -488 -679 -658
-327 -171 -333 -174 -312 -194 13 -14 32 -14 387 -5 231 6 241 4 320 -81 73
-78 79 -98 83 -266 2 -88 -1 -168 -7 -195 -13 -52 -68 -185 -116 -277 -18 -33
-69 -132 -115 -220 -45 -88 -90 -173 -100 -190 -53 -91 -223 -426 -300 -590
-104 -221 -235 -580 -264 -725 -3 -14 -7 -36 -11 -50 -5 -23 -26 -154 -39
-240 -37 -249 -49 -559 -26 -690 7 -41 14 -78 17 -82 2 -4 29 18 59 50 301
311 501 504 576 554 39 27 41 27 72 11 17 -9 67 -52 111 -97 104 -105 119
-122 279 -333 135 -177 204 -230 363 -282 75 -24 99 -28 126 -20 47 13 136 72
242 161 87 73 142 125 380 357 120 117 223 201 270 219 25 10 39 9 81 -6 101
-37 270 -167 466 -357 177 -172 259 -226 405 -266 88 -25 250 -29 338 -9 52
12 136 55 182 93 47 39 196 171 229 202 181 171 279 244 386 283 47 18 74 21
150 18 166 -7 292 -64 807 -364 240 -140 412 -229 461 -239 l33 -6 -7 34 c-5
28 -60 171 -96 254 -12 29 -68 177 -102 270 -41 116 -143 446 -168 545 -12 47
-25 96 -30 110 -5 14 -11 37 -14 51 -20 123 -198 711 -259 859 -6 14 -11 27
-11 30 -4 14 -74 194 -208 529 -82 205 -163 410 -180 455 -36 98 -77 247 -71
262 6 15 133 87 220 123 143 61 197 68 574 76 153 3 227 8 250 18 l34 14 -55
35 c-70 45 -127 75 -390 210 -355 182 -503 277 -561 360 -13 18 -26 35 -29 38
-3 3 -11 16 -18 30 -7 14 -25 45 -39 70 -81 141 -163 376 -188 537 -2 12 -6
34 -9 50 -6 30 -11 73 -21 163 -3 30 -8 71 -10 90 -9 76 -22 340 -30 600 -13
459 -18 570 -31 745 -40 561 -160 891 -451 1241 -139 169 -349 362 -494 456
-76 49 -216 115 -276 129 -39 10 -287 21 -296 13z m693 -1435 c79 -46 302
-382 302 -455 1 -49 -128 -191 -199 -220 -66 -28 -154 0 -264 82 -113 86 -169
195 -183 359 -7 86 30 154 118 218 67 48 158 54 226 16z m-1097 -23 c61 -26
94 -80 122 -199 53 -231 30 -383 -68 -441 -36 -22 -51 -25 -112 -22 -39 2 -79
8 -90 14 -11 6 -46 23 -78 37 -87 40 -150 95 -180 156 -22 47 -25 65 -23 144
2 70 7 100 25 136 25 53 81 113 126 137 91 48 215 65 278 38z"/>
</g>
</svg>
